<?xml version="1.0" standalone="no"?>
<!DOCTYPE svg PUBLIC "-//W3C//DTD SVG 20010904//EN"
 "http://www.w3.org/TR/2001/REC-SVG-20010904/DTD/svg10.dtd">
<svg version="1.0" xmlns="http://www.w3.org/2000/svg"
 width="784.000000pt" height="318.000000pt" viewBox="0 0 784.000000 318.000000"
 preserveAspectRatio="xMidYMid meet">

<g transform="translate(0.000000,318.000000) scale(0.100000,-0.100000)"
fill="#000000" stroke="none">
<path d="M2255 2058 c-129 -29 -223 -67 -270 -110 -22 -21 -49 -38 -61 -38
-11 0 -63 11 -115 25 -131 34 -179 33 -254 -10 -33 -18 -89 -49 -125 -68 -36
-19 -112 -76 -170 -127 -58 -50 -114 -95 -125 -100 -11 -4 -56 -22 -100 -40
-47 -19 -94 -46 -114 -66 -19 -19 -38 -34 -42 -34 -11 0 -49 51 -49 66 0 7
-15 29 -34 48 -26 28 -41 36 -68 36 -32 0 -36 -4 -60 -57 -14 -32 -29 -82 -33
-110 -4 -29 -11 -55 -16 -59 -5 -3 -9 -12 -9 -21 0 -29 -40 -73 -67 -73 -13 0
-36 -9 -50 -20 -14 -11 -36 -20 -48 -20 -30 0 -85 -73 -85 -112 0 -26 -3 -28
-39 -28 -38 0 -39 0 -48 48 -8 44 -10 47 -38 47 -25 0 -31 -5 -35 -30 -6 -34
-39 -55 -89 -55 -50 0 -111 -21 -111 -38 0 -10 6 -12 23 -8 12 4 49 10 82 13
70 7 103 25 121 68 l13 30 7 -42 c9 -56 22 -65 86 -61 l53 3 5 40 c6 48 40 95
68 95 10 0 31 9 45 20 14 11 37 20 52 20 25 0 74 42 75 65 0 6 6 22 14 36 7
14 16 48 20 75 8 61 45 144 63 144 29 0 55 -23 74 -64 17 -40 63 -96 79 -96 4
0 27 20 51 43 33 33 66 52 134 77 50 18 100 43 113 54 l23 21 19 -25 c11 -14
34 -52 52 -85 17 -33 47 -83 65 -112 34 -54 40 -73 23 -73 -14 0 -13 -77 1
-86 13 -7 26 -38 79 -176 l37 -96 -36 -17 c-78 -35 -77 -35 -38 -117 20 -40
45 -95 56 -123 11 -27 26 -54 35 -60 9 -6 42 -5 92 4 90 15 104 20 104 33 0 7
-19 8 -52 4 -29 -4 -72 -10 -94 -13 l-41 -5 -28 73 c-16 41 -36 88 -46 106
l-18 32 52 5 c29 3 82 8 118 11 l66 5 34 -77 c42 -99 59 -127 71 -115 6 6 2
25 -11 50 -22 42 -62 145 -58 148 1 1 25 4 54 8 51 6 53 6 68 -23 8 -17 15
-38 15 -49 0 -10 11 -47 25 -82 15 -37 22 -72 19 -86 -4 -17 -1 -26 10 -30 16
-6 140 15 249 42 45 12 62 12 73 3 7 -6 25 -8 39 -5 23 6 24 4 19 -22 -8 -38
19 -90 51 -98 46 -11 198 17 234 44 17 12 37 19 49 15 33 -8 87 15 136 58 46
40 56 62 35 74 -5 4 -70 20 -142 36 -73 16 -143 32 -156 35 -18 4 -21 8 -12
17 6 6 11 21 11 34 0 13 6 23 14 23 41 0 229 -22 278 -32 65 -14 68 -20 68
-139 l0 -68 53 -10 c113 -22 224 -41 277 -47 48 -5 62 -2 111 23 l57 29 4
-193 c3 -137 7 -196 16 -205 9 -9 75 -14 235 -18 221 -5 222 -5 225 -28 3 -22
3 -22 -143 -22 -113 0 -146 -3 -142 -12 6 -19 608 -19 615 0 3 9 -30 12 -142
12 l-146 0 0 25 0 25 154 0 154 0 10 -27 c6 -16 13 -36 16 -47 6 -16 13 -18
58 -12 28 4 71 16 95 27 43 19 43 20 37 62 -3 23 -11 58 -16 77 -6 19 -14 137
-17 261 -4 161 -10 230 -19 241 -7 9 -33 19 -57 22 l-44 7 -3 254 c-3 247 -2
254 17 259 11 3 23 6 26 6 4 0 4 -114 1 -253 l-5 -254 69 -6 c104 -10 158 -8
176 6 14 10 17 52 24 300 3 158 3 287 -1 287 -4 0 -18 -9 -32 -20 -37 -29 -53
-26 -53 10 0 37 -10 37 -58 5 -20 -14 -40 -25 -44 -25 -5 0 -8 18 -8 39 0 24
-7 48 -20 62 l-20 24 -28 -32 c-25 -29 -35 -33 -75 -33 -42 0 -49 3 -57 26 -7
16 -16 24 -28 22 -13 -2 -18 -17 -23 -63 -3 -33 -6 -50 -7 -39 -3 35 -26 47
-80 39 l-49 -6 -11 43 c-11 44 -20 102 -31 198 l-6 55 -50 -1 c-70 -2 -358
-23 -430 -32 l-60 -7 0 -65 c0 -36 7 -130 14 -210 10 -96 11 -159 5 -185 -8
-35 -9 -29 -12 54 -3 98 -11 121 -43 121 -20 0 -21 -9 13 213 l21 137 231 2
c412 5 355 13 476 -68 93 -62 114 -72 190 -87 114 -23 180 -22 241 4 64 28
118 22 169 -20 33 -26 47 -31 93 -31 30 0 83 9 117 20 43 14 75 18 99 14 43
-8 113 -37 150 -62 14 -10 44 -24 66 -31 56 -17 263 -10 338 12 37 11 93 17
158 17 74 0 114 5 156 20 62 22 102 24 266 13 l107 -6 20 -34 c24 -41 42 -41
100 -3 49 33 125 70 144 70 7 0 20 -16 29 -35 9 -20 26 -37 39 -40 28 -7 119
31 193 81 29 19 64 34 78 34 26 0 57 -23 57 -42 0 -5 9 -23 21 -39 26 -37 58
-38 153 -3 78 28 149 33 277 20 l75 -9 25 30 c13 17 32 45 41 62 24 44 39 46
104 17 78 -36 92 -34 111 14 14 36 20 40 50 40 44 0 75 31 98 99 15 46 15 54
2 69 -10 11 -12 24 -7 37 12 29 12 45 -1 45 -6 0 -16 -13 -22 -30 -7 -17 -19
-30 -29 -30 -26 0 -30 16 -14 48 15 28 13 42 -6 42 -5 0 -14 -13 -19 -29 -8
-22 -18 -31 -37 -33 -20 -2 -32 -13 -45 -42 -31 -65 -33 -103 -8 -136 24 -33
27 -59 9 -83 -12 -16 -17 -15 -66 8 -86 40 -109 34 -152 -40 -13 -22 -29 -43
-34 -47 -16 -11 -78 -9 -135 4 -63 14 -176 -1 -236 -32 -68 -35 -111 -22 -130
38 -8 27 -53 52 -92 52 -16 0 -59 -19 -98 -43 -39 -24 -89 -50 -113 -59 l-43
-17 -24 39 c-13 21 -29 41 -34 45 -6 3 -31 -3 -55 -15 -25 -11 -48 -20 -51
-20 -3 0 -28 -16 -56 -35 -60 -41 -65 -42 -74 -15 -14 44 -43 51 -227 53 -141
2 -178 -1 -193 -13 -12 -10 -57 -16 -159 -21 -134 -6 -206 -19 -233 -41 -7 -6
-59 -8 -120 -6 -95 3 -114 6 -158 31 -171 93 -229 105 -320 63 -71 -32 -125
-34 -151 -5 -25 29 -91 59 -130 59 -17 0 -53 -10 -80 -21 -41 -19 -60 -21
-128 -16 -130 10 -183 29 -292 104 l-99 68 -302 -4 -301 -3 -48 36 -47 36
-106 0 c-58 1 -142 8 -186 16 -44 9 -114 19 -155 23 -53 5 -96 17 -144 39 -38
18 -72 32 -77 32 -5 0 -31 14 -57 30 -43 26 -58 30 -118 29 -38 -1 -109 -10
-159 -21z m287 -52 l74 -35 12 -64 c7 -35 12 -87 12 -115 0 -28 4 -73 9 -99 5
-26 12 -85 14 -131 5 -80 4 -84 -19 -94 -23 -11 -24 -16 -24 -105 l0 -93 -27
0 c-16 0 -56 -12 -90 -27 l-63 -27 -1 -86 0 -85 -17 33 c-15 31 -19 33 -60 31
-44 -3 -45 -3 -63 41 -10 25 -18 62 -18 82 -1 22 -7 40 -16 46 -17 9 -45 57
-112 190 -45 91 -47 92 -82 92 -20 0 -54 -9 -75 -21 -21 -11 -40 -18 -43 -15
-3 2 -24 34 -46 69 -23 35 -65 98 -93 140 -29 41 -61 100 -73 131 -25 67 -27
66 93 36 101 -26 118 -25 146 5 18 19 26 22 31 13 10 -19 49 -236 51 -292 3
-54 28 -79 28 -28 l0 29 158 2 c86 1 174 6 196 12 21 6 41 7 44 4 4 -3 10 -79
13 -168 7 -174 13 -207 36 -207 11 0 13 6 8 23 -4 12 -11 96 -15 187 -5 120
-14 197 -33 283 -15 65 -27 146 -27 180 0 62 -12 98 -27 84 -13 -13 -3 -146
18 -239 21 -97 23 -122 10 -114 -5 3 -22 2 -37 -4 -16 -5 -100 -10 -186 -12
l-158 -3 -6 45 c-3 25 -14 88 -25 140 l-18 95 21 18 c11 9 30 19 42 21 11 2
73 14 136 27 99 19 175 33 216 38 6 0 45 -15 86 -33z m160 -66 c13 0 18 -7 17
-27 -1 -48 -34 -204 -42 -197 -4 4 -7 37 -7 73 0 36 -5 85 -10 109 -11 47 -5
71 13 53 6 -6 19 -11 29 -11z m-1057 -19 c-6 -5 -57 -35 -115 -67 -58 -31
-123 -69 -145 -84 -65 -43 -72 -45 -40 -11 17 18 57 47 90 63 33 17 79 44 102
59 23 16 52 33 65 39 31 12 55 13 43 1z m65 -54 c0 -4 -4 -6 -9 -3 -4 3 -18
-5 -30 -18 -28 -29 -10 -47 20 -20 17 16 22 16 29 4 6 -8 10 -20 10 -25 0 -10
-59 -50 -64 -43 -1 1 -7 15 -14 31 -14 32 -43 36 -72 7 -26 -26 -25 -56 1 -71
20 -10 19 -12 -21 -35 -23 -13 -43 -24 -44 -24 0 0 -1 15 -1 33 0 28 -4 32
-29 35 -16 2 -33 -1 -38 -6 -16 -16 0 -62 24 -71 18 -7 16 -10 -28 -38 -93
-58 -144 -85 -144 -75 0 5 9 12 20 15 24 6 26 39 4 58 -12 10 -20 10 -35 1
-21 -14 -39 -8 -39 11 1 20 124 102 313 207 108 61 123 66 135 52 6 -9 12 -20
12 -25z m1333 -1 c142 -24 260 -46 264 -49 3 -3 2 -27 -2 -53 l-7 -46 -36 4
c-20 2 -148 24 -285 49 l-247 44 6 30 c11 56 15 65 32 65 9 -1 133 -20 275
-44z m4687 9 c0 -8 -7 -15 -15 -15 -8 0 -15 7 -15 15 0 8 7 15 15 15 8 0 15
-7 15 -15z m-4465 -5 c8 -13 -35 -13 -55 0 -11 7 -7 10 17 10 17 0 35 -4 38
-10z m-1635 -95 c0 -8 -9 -15 -20 -15 -22 0 -27 15 -7 23 21 9 27 7 27 -8z
m1398 -42 l264 -47 -7 -45 c-4 -26 -11 -72 -14 -103 -4 -32 -9 -60 -12 -62 -2
-3 -32 -2 -67 1 -57 5 -62 8 -62 30 0 52 -48 111 -112 138 -94 38 -207 -11
-208 -90 0 -28 -4 -32 -52 -47 -29 -9 -55 -14 -58 -11 -10 10 -5 130 9 206 12
67 17 77 35 77 12 0 140 -21 284 -47z m-1268 26 c0 -18 -39 -46 -160 -113 -63
-35 -146 -85 -185 -110 -38 -25 -74 -45 -79 -43 -23 8 -13 25 26 47 24 13 72
42 108 65 90 58 273 165 283 165 4 0 7 -5 7 -11z m2103 -41 c13 -109 26 -194
32 -210 7 -17 -29 -98 -44 -98 -5 0 -9 25 -10 56 -1 78 -11 88 -89 81 -38 -3
-68 -10 -73 -18 -8 -13 -5 -46 8 -93 4 -16 1 -18 -18 -13 -13 3 -42 9 -64 12
l-41 7 -18 -89 -19 -89 -46 12 c-78 21 -81 23 -81 63 0 20 -7 111 -17 203 -9
92 -14 170 -11 173 5 5 371 40 454 44 30 1 32 -1 37 -41z m-2060 -23 c9 -13
42 -61 72 -106 48 -71 53 -84 40 -92 -9 -5 -18 -7 -19 -5 -16 18 -89 143 -101
172 -13 30 -20 37 -36 33 -17 -4 -18 -3 -8 9 16 20 31 17 52 -11z m-313 5 c0
-5 -2 -10 -4 -10 -3 0 -8 5 -11 10 -3 6 -1 10 4 10 6 0 11 -4 11 -10z m280
-51 c0 -6 20 -45 45 -86 25 -40 45 -77 45 -81 0 -4 -21 -20 -47 -35 -36 -23
-51 -26 -67 -19 -12 6 -29 13 -38 16 -36 11 -19 28 22 21 32 -5 40 -4 40 8 0
10 -14 18 -40 22 -22 4 -40 9 -40 11 0 2 14 29 31 59 20 36 28 61 24 75 -5 14
-2 20 9 20 9 0 16 -5 16 -11z m-69 -56 c-47 -91 -47 -90 -70 -69 -30 28 -47 9
-19 -21 l23 -25 -29 4 c-17 2 -31 -2 -33 -9 -3 -7 2 -13 11 -13 20 0 20 -9 -2
-38 -13 -17 -31 -24 -72 -29 -54 -5 -55 -4 -74 28 -13 21 -16 34 -8 37 6 2 32
20 58 40 36 28 226 147 242 151 1 1 -11 -25 -27 -56z m1313 23 c19 -8 46 -31
60 -52 30 -44 35 -80 10 -70 -9 3 -22 6 -30 6 -8 0 -14 10 -14 25 0 29 -23 43
-84 51 -39 6 -47 3 -69 -20 -28 -30 -57 -34 -57 -8 0 22 47 68 75 75 39 9 76
7 109 -7z m-1529 -82 c-16 -14 -47 -36 -67 -50 -44 -28 -44 -30 -18 -64 20
-25 26 -50 13 -50 -14 0 -55 68 -51 84 2 13 133 106 148 105 3 0 -8 -11 -25
-25z m1519 -5 c16 -15 1 -19 -37 -8 -52 14 -61 34 -11 25 21 -4 43 -12 48 -17z
m-885 -61 c15 -35 45 -90 65 -122 20 -33 36 -63 36 -67 0 -8 -124 -64 -197
-89 -48 -17 -51 -17 -46 -2 10 29 23 41 54 47 24 6 30 13 35 46 7 43 26 54 74
44 36 -8 39 7 6 25 -25 13 -70 7 -93 -12 -7 -6 -13 -23 -13 -39 0 -22 -6 -30
-24 -35 -13 -3 -34 -1 -46 6 l-21 11 26 47 26 46 -35 34 c-24 25 -39 33 -52
28 -15 -6 -13 -11 17 -36 l34 -29 -22 -40 c-28 -49 -28 -58 -3 -79 18 -15 19
-22 10 -52 -14 -50 -13 -80 5 -80 8 0 15 6 16 13 1 24 27 -58 28 -90 1 -29 -5
-35 -79 -78 -45 -26 -82 -46 -83 -44 -2 2 -9 17 -15 33 -13 29 -5 45 21 46 12
0 90 53 104 70 15 18 11 36 -8 33 -9 -1 -30 31 -56 85 -85 178 -96 203 -85
214 20 20 247 128 269 128 18 0 29 -13 52 -62z m1696 -13 c4 -36 6 -67 4 -69
-2 -2 -24 -6 -49 -10 l-46 -7 -10 68 c-12 78 -9 83 53 83 l41 0 7 -65z m-880
45 c19 -7 18 -9 -8 -19 -16 -6 -27 -17 -24 -24 6 -18 98 -12 112 7 10 13 18
13 61 2 30 -8 43 -15 34 -19 -12 -5 -10 -10 9 -27 31 -26 57 -22 53 9 -2 22 0
23 50 16 99 -12 97 -17 -22 -46 -120 -30 -176 -36 -165 -19 3 6 15 10 26 10
14 0 19 6 17 18 -2 13 -13 17 -43 17 -34 0 -40 -3 -43 -22 -4 -27 3 -27 -97
-4 -63 14 -75 19 -57 25 30 10 25 40 -7 44 -35 5 -71 -7 -71 -23 0 -16 -23
-18 -55 -5 -18 7 -16 10 18 24 38 17 147 44 177 44 8 0 24 -3 35 -8z m1290
-30 c-3 -5 -19 -10 -36 -10 -16 0 -29 5 -29 10 0 6 16 10 36 10 21 0 33 -4 29
-10z m-205 -14 c0 -14 -66 -30 -82 -20 -16 10 -7 23 20 27 53 8 62 7 62 -7z
m100 -7 c0 -5 -4 -9 -10 -9 -5 0 -10 7 -10 16 0 8 5 12 10 9 6 -3 10 -10 10
-16z m-2454 -18 c-4 -6 -17 -11 -28 -11 -21 0 -21 1 -3 20 19 21 44 13 31 -9z
m2734 -57 c0 -78 24 -298 40 -369 5 -22 10 -52 10 -67 0 -26 -3 -28 -37 -28
-21 0 -62 3 -92 7 l-53 6 6 171 c9 240 14 276 42 303 30 28 66 53 76 53 5 0 8
-34 8 -76z m-411 34 c55 10 59 8 37 -14 -14 -13 -146 -22 -146 -9 0 3 5 14 12
25 11 17 14 18 29 4 14 -12 27 -13 68 -6z m231 18 c0 -2 -11 -6 -25 -8 -14 -3
-25 -1 -25 3 0 5 11 9 25 9 14 0 25 -2 25 -4z m-1470 -26 c47 -11 136 -29 198
-42 l112 -22 0 -43 c0 -24 -3 -43 -7 -43 -5 0 -53 12 -108 26 -55 14 -143 29
-195 32 l-95 7 -3 53 c-2 28 1 52 5 51 4 0 46 -9 93 -19z m-1039 -4 c-6 -7 -8
-26 -5 -44 6 -30 5 -31 -37 -34 -24 -2 -44 -9 -47 -16 -3 -10 9 -13 53 -11 40
2 59 -1 66 -12 15 -23 10 -30 -12 -18 -17 8 -24 8 -35 -3 -11 -11 -9 -21 8
-60 11 -27 24 -48 29 -48 5 0 18 -18 29 -40 l20 -40 -42 0 c-24 0 -54 -3 -67
-7 l-24 -6 21 21 c29 29 28 73 -3 110 -14 17 -25 38 -25 48 0 23 -41 84 -57
84 -7 0 -13 5 -13 10 0 19 -27 10 -39 -14 -10 -18 -28 -27 -73 -37 -56 -11
-62 -11 -74 6 -8 10 -14 24 -14 31 0 12 77 36 175 54 33 6 85 17 115 25 30 7
57 14 59 14 2 1 -2 -5 -8 -13z m1937 -1 c32 -7 41 -18 23 -30 -6 -3 -28 -3
-50 1 -32 5 -41 11 -41 26 0 14 5 18 18 14 9 -2 32 -7 50 -11z m446 0 c3 -9 0
-15 -9 -15 -9 0 -12 6 -9 15 4 8 7 15 9 15 2 0 5 -7 9 -15z m362 -146 l2 -154
-13 85 c-18 115 -19 233 -2 228 9 -4 12 -45 13 -159z m-1136 78 c0 -35 -11
-119 -24 -188 -13 -68 -23 -137 -22 -154 1 -30 1 -30 -54 -29 -30 1 -75 7 -99
13 -43 12 -43 13 -37 49 3 20 6 99 6 174 0 129 1 138 21 148 29 16 148 48 182
49 27 1 27 0 27 -62z m-1530 -9 c40 -95 84 -183 99 -201 15 -18 10 -34 -9 -22
-6 3 -27 39 -46 78 -20 39 -46 87 -58 106 -12 20 -27 48 -34 64 -10 24 -9 27
7 27 13 0 25 -16 41 -52z m2390 -24 l0 -57 -37 7 c-21 3 -58 6 -83 6 l-45 0 3
45 4 45 -85 0 c-47 0 -88 -4 -91 -8 -12 -19 11 -67 35 -72 l24 -6 -25 -7 c-14
-4 -64 -7 -112 -7 l-88 0 0 28 c0 56 10 71 49 75 20 2 129 4 244 5 l207 2 0
-56z m-551 37 c19 -12 6 -41 -19 -41 -13 0 -20 7 -20 18 0 31 14 39 39 23z
m271 -31 c0 -5 -4 -10 -10 -10 -5 0 -10 5 -10 10 0 6 5 10 10 10 6 0 10 -4 10
-10z m100 0 c0 -5 -5 -10 -11 -10 -5 0 -7 5 -4 10 3 6 8 10 11 10 2 0 4 -4 4
-10z m-1090 -46 l150 -37 -1 -86 c-1 -130 -4 -136 -67 -137 l-52 -2 1 57 c0
31 4 77 8 103 10 62 -6 78 -80 78 -54 1 -207 24 -216 34 -3 2 -2 9 2 15 12 20
104 11 255 -25z m697 6 c26 0 26 0 13 -35 -8 -22 -14 -24 -37 -19 -37 9 -36 8
-28 44 5 23 10 29 18 21 6 -6 21 -11 34 -11z m-2057 -112 c0 -54 24 -87 63
-89 13 0 16 -2 7 -6 -8 -2 -25 -9 -37 -15 -13 -6 -24 -9 -26 -7 -7 9 -49 126
-61 172 -13 46 -12 49 8 56 17 7 22 3 33 -28 7 -20 13 -57 13 -83z m1864 106
c3 -8 10 -13 15 -9 5 3 13 1 16 -5 5 -8 12 -7 23 2 13 11 14 10 8 -16 -5 -20
-3 -32 6 -37 10 -7 9 -9 -4 -10 -10 -1 -23 -2 -30 -3 -6 0 -13 -7 -16 -15 -3
-10 2 -11 19 -6 20 7 21 6 9 -7 -8 -8 -25 -17 -38 -20 -20 -6 -22 -3 -16 15 3
12 10 27 15 33 9 11 2 24 -12 24 -4 0 -10 -11 -13 -25 -4 -15 -13 -25 -24 -25
-13 0 -14 2 -3 9 7 5 11 13 7 19 -3 6 -1 14 5 17 5 4 8 14 4 22 -7 19 3 53 15
53 4 0 11 -7 14 -16z m-1806 -6 c-5 -16 -48 -24 -48 -10 0 11 17 20 38 21 8 1
12 -5 10 -11z m-138 -64 c9 -32 27 -84 38 -114 26 -65 25 -60 8 -60 -17 0
-100 206 -91 227 10 28 28 6 45 -53z m794 -16 c10 -40 23 -78 28 -85 6 -8 3
-15 -11 -22 -18 -10 -219 -61 -240 -61 -4 0 -11 21 -14 48 -4 26 -9 59 -13 75
-6 24 -3 29 24 38 17 6 61 25 99 44 101 50 105 49 127 -37z m366 63 c0 -5 -5
-11 -12 -13 -6 -2 -8 -9 -4 -16 10 -16 38 -2 31 16 -4 12 1 13 26 8 17 -3 37
-6 44 -6 8 0 11 -8 8 -19 -3 -13 1 -21 14 -25 22 -6 -113 3 -144 11 -16 4 -23
13 -23 29 0 20 5 24 30 24 17 0 30 -4 30 -9z m-875 -13 c17 -7 38 -34 56 -70
34 -66 34 -68 14 -68 -8 0 -22 15 -31 33 -9 17 -30 47 -45 65 -26 29 -37 52
-24 52 2 0 16 -5 30 -12z m765 -14 c0 -8 -5 -12 -10 -9 -6 4 -8 11 -5 16 9 14
15 11 15 -7z m980 6 c0 -5 -2 -10 -4 -10 -3 0 -8 5 -11 10 -3 6 -1 10 4 10 6
0 11 -4 11 -10z m678 -162 l2 -168 -51 0 -52 0 7 43 c4 23 9 77 13 119 8 105
4 110 -106 108 -49 -1 -99 3 -116 10 -16 7 -47 13 -69 14 -37 1 -39 0 -42 -34
-3 -19 -9 -50 -14 -70 -5 -19 -10 -60 -10 -90 0 -73 -8 -100 -30 -100 -16 0
-19 12 -25 83 -3 45 -5 118 -3 162 l3 80 95 6 c52 3 163 6 245 5 l150 -1 3
-167z m-518 -3 l0 -165 -35 0 c-19 0 -35 1 -35 3 2 45 32 223 39 230 6 6 11
27 11 47 0 32 6 50 17 50 2 0 3 -74 3 -165z m-2000 83 c0 -21 -6 -29 -25 -34
-34 -8 -55 11 -54 50 1 24 3 26 6 8 3 -13 11 -26 20 -29 18 -7 35 17 24 32 -4
5 -11 19 -15 30 -6 17 -4 17 18 -4 16 -15 26 -35 26 -53z m1170 52 c0 -11 -4
-20 -10 -20 -5 0 -10 9 -10 20 0 11 5 20 10 20 6 0 10 -9 10 -20z m60 16 c0
-3 -4 -8 -10 -11 -5 -3 -10 -1 -10 4 0 6 5 11 10 11 6 0 10 -2 10 -4z m701
-26 c15 -9 17 -15 9 -30 -12 -22 -40 -26 -58 -8 -7 7 -8 17 -1 30 11 21 22 22
50 8z m-946 -20 c124 -14 145 -19 145 -36 0 -24 -110 -13 -297 31 -42 10 -25
27 20 21 23 -4 83 -11 132 -16z m275 10 c0 -6 -21 -20 -46 -30 -53 -23 -57
-24 -52 -9 2 7 24 20 48 29 25 10 46 18 48 19 1 1 2 -4 2 -9z m420 -20 c0 -5
-5 -10 -11 -10 -5 0 -7 5 -4 10 3 6 8 10 11 10 2 0 4 -4 4 -10z m509 -1 c30
-10 31 -13 31 -66 0 -30 -5 -85 -11 -124 l-12 -69 -47 0 -48 0 5 68 c4 64 22
179 30 195 6 10 14 9 52 -4z m-1329 -29 c22 -7 20 -8 -12 -7 -21 1 -38 5 -38
9 0 10 16 9 50 -2z m838 -33 c-14 -42 -14 -42 -33 -23 -14 13 -14 16 -2 16 8
0 18 11 21 25 4 14 11 23 16 20 5 -3 4 -19 -2 -38z m712 31 c0 -5 0 -28 0 -53
0 -44 -1 -45 -31 -45 -30 0 -30 1 -28 48 1 26 4 51 7 55 5 10 53 5 52 -5z
m-1158 -64 c-4 -64 -5 -66 -38 -80 -52 -22 -54 -19 -54 50 l0 64 38 15 c56 24
57 23 54 -49z m488 55 c0 -6 7 -9 15 -5 21 8 19 -11 -2 -23 -10 -5 -15 -13
-11 -17 4 -4 15 -1 24 7 15 12 17 12 12 -1 -6 -21 -68 -26 -68 -6 0 8 4 17 10
21 5 3 7 12 3 20 -3 8 0 15 6 15 6 0 11 -5 11 -11z m-733 -20 c58 -11 62 -13
52 -31 -15 -27 -21 -88 -10 -88 18 0 41 44 41 77 0 26 4 33 20 33 18 0 20 -7
20 -76 0 -74 -1 -76 -22 -70 -27 7 -137 22 -230 31 l-68 7 0 57 0 58 52 -5
c46 -4 51 -3 45 13 -6 14 -3 16 15 12 13 -3 51 -11 85 -18z m817 -17 c-4 -18
-10 -29 -14 -27 -5 3 -3 18 3 35 14 37 19 33 11 -8z m87 28 c10 0 17 -6 15
-12 -3 -7 -7 -25 -10 -39 -5 -22 -10 -25 -36 -21 -31 4 -35 16 -24 60 4 15 12
21 21 18 8 -3 23 -6 34 -6z m359 -10 c0 -5 -5 -10 -11 -10 -5 0 -7 5 -4 10 3
6 8 10 11 10 2 0 4 -4 4 -10z m-2051 -24 c-2 -2 -33 -21 -69 -42 -69 -39 -114
-50 -260 -59 -92 -6 -92 -7 15 41 68 30 121 44 180 45 28 1 64 5 80 9 35 9 60
12 54 6z m535 -43 c25 -74 21 -111 -22 -172 -21 -30 -43 -56 -49 -58 -6 -2
-16 20 -23 49 -7 29 -22 75 -33 101 -11 26 -18 49 -16 51 27 27 98 75 111 75
11 1 21 -15 32 -46z m-181 -23 c-13 -10 -48 -20 -85 -24 -35 -4 -92 -14 -128
-22 -122 -27 -119 -27 -77 0 21 13 46 22 55 20 9 -2 69 9 132 24 63 16 117 27
120 24 3 -2 -5 -12 -17 -22z m1214 -6 c8 -17 9 -34 2 -51 -5 -13 -7 -28 -4
-33 5 -8 -74 -20 -87 -13 -12 6 -10 63 2 63 6 0 10 -9 10 -20 0 -11 5 -20 10
-20 6 0 10 11 10 24 0 15 7 26 18 29 14 3 12 6 -8 14 -16 7 -32 7 -42 1 -14
-7 -18 -5 -18 12 0 17 6 20 48 20 41 0 49 -4 59 -26z m-128 -27 c1 -5 -3 -5
-9 -2 -5 3 -10 16 -9 28 0 21 1 21 9 2 5 -11 9 -24 9 -28z m606 33 c3 -5 1
-10 -4 -10 -6 0 -11 5 -11 10 0 6 2 10 4 10 3 0 8 -4 11 -10z m55 6 c0 -3 -4
-8 -10 -11 -5 -3 -10 -1 -10 4 0 6 5 11 10 11 6 0 10 -2 10 -4z m-445 -19
c-14 -11 -15 -16 -5 -22 7 -4 16 -2 21 6 7 11 9 10 9 -3 0 -12 -8 -18 -23 -18
-30 0 -36 6 -30 31 3 11 14 19 26 19 20 0 20 -1 2 -13z m-413 -37 c46 -11 106
-20 133 -20 l50 0 -25 -20 c-27 -21 -93 -40 -137 -40 -26 0 -217 43 -253 57
-24 9 59 42 107 43 23 0 79 -9 125 -20z m909 -23 c29 -8 24 -37 -6 -37 -23 0
-25 3 -24 43 1 23 4 32 6 21 2 -12 13 -24 24 -27z m-1764 -12 c40 -133 42
-140 30 -147 -7 -4 -15 -8 -19 -8 -10 0 -33 56 -42 102 -4 21 -11 40 -16 43
-12 7 -203 -29 -274 -52 l-48 -15 6 -39 c12 -73 -25 -32 -39 44 -6 32 -5 35
32 50 21 8 77 22 123 31 235 45 231 45 247 -9z m2220 23 c-3 -8 -6 -5 -6 6 -1
11 2 17 5 13 3 -3 4 -12 1 -19z m-951 -18 c13 0 24 -4 24 -10 0 -12 -61 -1
-75 13 -7 7 -4 8 8 3 10 -3 30 -6 43 -6z m-601 -36 c33 -9 95 -23 138 -32 87
-18 82 -12 90 -119 l5 -61 -37 4 c-20 3 -70 11 -111 19 -41 7 -94 17 -118 20
-24 4 -45 12 -47 18 -2 7 -6 47 -8 90 -6 89 -10 86 88 61z m-727 -26 c3 -17
-33 -28 -158 -48 -36 -6 -77 -13 -92 -16 -21 -4 -28 -2 -28 10 0 18 9 21 148
51 117 25 126 26 130 3z m1092 -58 l0 -80 -46 -22 c-55 -27 -64 -19 -64 59 0
28 -3 58 -6 67 -4 11 5 18 33 25 21 6 45 15 53 21 27 18 30 11 30 -70z m986
47 c5 -5 10 -56 12 -115 4 -104 -3 -128 -17 -60 l-7 33 -64 -3 c-37 -2 -78
-11 -101 -23 -34 -17 -39 -24 -39 -54 0 -36 18 -112 43 -182 9 -23 19 -62 22
-87 l7 -46 -379 0 c-300 0 -383 3 -397 13 -16 12 -19 29 -18 149 0 75 3 188 7
251 l7 116 77 6 c42 4 81 8 86 10 20 8 754 0 761 -8z m-1827 -22 c17 5 20 3
15 -10 -5 -11 -14 -15 -28 -11 -11 3 -27 6 -35 6 -11 0 -11 3 -1 15 10 12 15
13 20 4 4 -6 16 -8 29 -4z m62 -17 c1 -7 1 -19 0 -25 -1 -7 6 -13 15 -13 10 0
14 5 11 15 -4 8 -2 17 4 20 16 10 88 -5 105 -22 10 -11 19 -12 25 -6 11 11 49
6 49 -6 0 -21 -92 -81 -125 -81 -8 0 -15 8 -15 18 0 25 -20 42 -49 42 -27 0
-51 34 -43 58 5 16 22 15 23 0z m-331 -6 c0 -27 -35 -42 -147 -64 -90 -18
-123 -21 -123 -12 0 22 45 41 130 54 47 7 94 16 105 21 27 10 35 11 35 1z m40
-32 c0 -11 -7 -20 -15 -20 -13 0 -14 4 -5 20 6 11 13 20 15 20 3 0 5 -9 5 -20z
m229 -2 c20 -6 29 -13 22 -18 -14 -8 -101 18 -101 30 0 8 22 5 79 -12z m-89
-28 c0 -5 -7 -10 -15 -10 -8 0 -15 5 -15 10 0 6 7 10 15 10 8 0 15 -4 15 -10z
m-9 -34 c35 0 36 0 26 -31 -6 -16 -11 -36 -13 -42 -5 -20 -46 -15 -71 9 -34
32 -29 88 6 71 9 -4 32 -7 52 -7z m197 2 c-14 -42 -148 -82 -148 -44 0 8 5 18
10 21 6 3 10 1 10 -4 0 -21 31 -10 40 14 8 21 16 25 51 25 28 0 39 -4 37 -12z
m1706 -98 c10 -39 20 -97 23 -128 3 -31 9 -61 13 -67 8 -10 27 -92 32 -134 3
-21 -5 -27 -61 -47 -36 -13 -65 -22 -66 -21 -17 37 -27 70 -35 125 -6 37 -19
92 -29 122 -50 150 -53 173 -18 191 21 12 74 25 108 28 12 1 21 -17 33 -69z"/>
<path d="M2375 1863 c4 -21 10 -57 14 -81 4 -23 11 -45 15 -49 13 -13 24 19
16 46 -5 14 -11 47 -15 74 -4 33 -11 47 -22 47 -13 0 -14 -7 -8 -37z"/>
<path d="M2404 1605 c-7 -17 13 -134 26 -155 18 -30 22 2 10 84 -13 82 -24
104 -36 71z"/>
<path d="M1363 1676 c-22 -19 -24 -25 -14 -44 23 -43 101 -10 87 36 -10 30
-43 34 -73 8z m42 -26 c-3 -5 -10 -10 -16 -10 -5 0 -9 5 -9 10 0 6 7 10 16 10
8 0 12 -4 9 -10z"/>
<path d="M2981 1832 c-11 -22 2 -45 31 -55 23 -8 50 20 46 47 -4 29 -62 36
-77 8z"/>
<path d="M3606 1322 c-3 -6 -1 -14 5 -17 15 -10 25 3 12 16 -7 7 -13 7 -17 1z"/>
<path d="M3580 1235 c0 -9 5 -15 11 -13 6 2 11 8 11 13 0 5 -5 11 -11 13 -6 2
-11 -4 -11 -13z"/>
<path d="M3400 1223 c0 -15 38 -34 46 -22 7 13 5 15 -23 23 -13 4 -23 4 -23
-1z"/>
<path d="M2673 1198 c2 -7 10 -13 17 -13 7 0 15 6 18 13 2 7 -5 12 -18 12 -13
0 -20 -5 -17 -12z"/>
<path d="M3560 1150 c0 -5 5 -10 10 -10 6 0 10 5 10 10 0 6 -4 10 -10 10 -5 0
-10 -4 -10 -10z"/>
<path d="M3540 1060 c0 -5 5 -10 10 -10 6 0 10 5 10 10 0 6 -4 10 -10 10 -5 0
-10 -4 -10 -10z"/>
<path d="M3723 789 c3 -20 19 -70 35 -110 16 -41 28 -75 27 -77 -2 -2 -40 35
-86 82 -45 48 -84 84 -87 81 -2 -2 28 -39 68 -82 40 -42 68 -79 62 -81 -12 -4
-106 33 -149 58 -18 11 -35 15 -38 11 -8 -14 14 -26 117 -67 54 -20 96 -39 94
-41 -1 -2 -59 -15 -127 -29 -68 -14 -128 -30 -134 -36 -7 -7 0 -9 25 -4 19 4
69 14 110 21 41 8 91 17 110 21 l35 6 -39 -28 c-29 -22 -34 -30 -22 -32 9 -2
29 8 43 22 23 23 51 28 38 6 -9 -14 18 -111 28 -101 5 5 4 24 -2 47 -21 76
-13 81 49 29 41 -34 60 -43 60 -27 0 4 -25 25 -55 47 -47 35 -66 55 -50 55 2
0 39 -14 81 -30 42 -17 82 -29 88 -27 6 3 -7 12 -29 21 -83 35 -83 35 -20 37
33 1 49 3 35 6 -110 16 -110 15 3 63 42 18 77 37 77 41 0 13 2 13 -98 -31 -49
-22 -95 -40 -101 -40 -17 0 71 112 116 149 20 17 34 33 31 37 -12 11 -89 -60
-134 -123 -25 -35 -51 -63 -59 -63 -16 0 -45 61 -71 148 -21 69 -39 93 -31 41z"/>
<path d="M2570 775 c-21 -26 -2 -36 53 -26 4 0 7 8 7 17 0 10 -6 14 -15 10 -8
-3 -15 -1 -15 4 0 15 -16 12 -30 -5z"/>
<path d="M2630 730 c0 -5 5 -10 10 -10 6 0 10 5 10 10 0 6 -4 10 -10 10 -5 0
-10 -4 -10 -10z"/>
<path d="M4120 598 c0 -18 7 -46 16 -63 14 -28 31 -92 58 -233 14 -68 21 -81
36 -66 6 6 3 38 -9 89 -11 44 -22 100 -26 125 -4 25 -14 59 -23 75 -9 17 -18
45 -21 64 -8 46 -31 53 -31 9z"/>
<path d="M4215 470 c-9 -15 16 -43 27 -32 10 10 0 42 -12 42 -5 0 -12 -5 -15
-10z"/>
<path d="M4683 1529 c-61 -30 -109 -78 -127 -127 -23 -62 -21 -182 4 -232 23
-44 101 -109 142 -117 l28 -5 0 -180 c0 -165 -2 -180 -20 -200 -11 -12 -20
-30 -20 -40 0 -16 10 -18 90 -18 75 0 92 3 97 17 4 11 -4 25 -25 44 l-32 29 0
167 0 168 63 24 c34 14 77 36 94 50 79 62 96 204 38 316 -28 53 -35 59 -100
87 -91 40 -174 46 -232 17z m56 -38 c-18 -25 -21 -38 -16 -81 3 -28 2 -59 -3
-68 -5 -9 -11 -25 -14 -34 -4 -14 -16 -18 -54 -18 -56 0 -72 -12 -72 -55 -1
-27 -2 -28 -12 -11 -16 27 -2 133 25 186 16 33 36 53 77 77 30 18 63 33 73 33
16 0 16 -3 -4 -29z m257 -96 c42 -89 28 -203 -33 -259 -42 -40 -134 -69 -196
-64 -61 5 -140 47 -165 88 -11 18 -12 21 -2 13 26 -23 88 -15 135 17 58 40 95
40 115 -2 8 -17 23 -36 32 -42 44 -26 122 49 98 94 -14 26 -68 60 -95 60 -13
0 -26 13 -37 36 -18 34 -17 36 5 82 13 26 22 55 19 66 -3 16 2 15 48 -10 42
-23 57 -39 76 -79z m-160 84 c3 -6 -4 -33 -16 -60 -29 -61 -56 -66 -66 -13 -9
51 8 84 45 84 16 0 33 -5 37 -11z m-22 -145 c31 -12 11 -84 -24 -84 -37 0 -50
12 -50 44 0 18 3 36 7 39 8 9 46 9 67 1z m108 -80 c37 -19 42 -31 24 -59 -25
-38 -51 -31 -78 18 -38 67 -22 79 54 41z m-201 -10 c19 -23 -24 -55 -71 -52
-32 3 -35 6 -38 36 l-3 32 49 0 c33 0 54 -5 63 -16z m69 -379 c0 -149 -2 -175
-15 -175 -13 0 -15 25 -15 168 0 93 3 172 7 175 19 20 23 -8 23 -168z m48
-222 c3 -10 -14 -13 -62 -13 -55 0 -64 2 -59 15 7 20 114 17 121 -2z"/>
<path d="M4677 1448 c-21 -11 -79 -127 -71 -140 11 -17 22 -7 38 36 9 24 28
56 42 71 27 29 21 51 -9 33z"/>
<path d="M4890 1442 c0 -5 11 -35 25 -66 14 -31 25 -63 25 -71 0 -8 7 -15 16
-15 21 0 14 40 -18 107 -21 43 -48 68 -48 45z"/>
<path d="M4690 1139 c0 -16 49 -29 110 -29 54 0 89 15 58 24 -31 10 -168 14
-168 5z"/>
<path d="M705 1464 c-8 -20 -15 -39 -15 -43 0 -3 -11 -33 -24 -66 -19 -46 -33
-65 -61 -80 -20 -12 -52 -33 -71 -49 l-36 -28 4 -74 3 -73 -90 -37 c-49 -20
-94 -41 -100 -45 -6 -6 -3 -33 8 -73 20 -75 20 -76 8 -76 -9 0 -14 19 -26 98
l-7 42 -83 0 c-46 0 -86 -4 -90 -9 -3 -6 -17 -6 -33 -1 -15 4 -42 11 -61 14
l-34 6 7 -167 c5 -93 7 -219 7 -280 -2 -96 1 -113 14 -113 8 0 15 5 15 11 0
11 46 10 250 -6 90 -7 143 14 148 59 3 26 4 26 34 10 36 -19 111 -14 223 15
67 16 70 19 73 49 l3 32 192 0 192 -1 -37 -22 c-45 -26 -48 -50 -12 -90 29
-33 45 -32 131 10 58 29 66 48 32 79 -19 17 -19 19 -2 25 10 4 35 8 55 8 24 1
46 9 62 25 25 22 26 29 26 123 0 96 -1 100 -25 113 -25 13 -25 13 -25 166 l0
154 -25 6 c-14 3 -36 3 -50 0 -32 -8 -34 18 -4 43 42 34 34 157 -12 181 -19
11 -209 11 -209 1 0 -4 7 -16 15 -27 9 -14 15 -53 17 -115 l3 -94 -39 0 -39 0
-1 65 -1 65 -43 0 c-35 0 -45 4 -55 25 -11 20 -20 25 -51 24 -31 -1 -36 1 -30
15 4 9 9 30 12 48 4 30 1 33 -57 62 -33 17 -63 31 -66 31 -2 0 -12 -16 -20
-36z m75 -24 c44 -22 53 -36 18 -27 -14 4 -26 0 -34 -11 -11 -14 -9 -20 9 -35
l22 -18 -25 7 c-34 9 -35 10 -21 40 15 34 -2 56 -19 25 -6 -12 -9 -25 -6 -29
2 -4 -4 -25 -13 -46 -29 -61 -31 -28 -3 47 13 37 27 67 29 67 2 0 22 -9 43
-20z m15 -50 c3 -5 1 -10 -4 -10 -6 0 -11 5 -11 10 0 6 2 10 4 10 3 0 8 -4 11
-10z m344 -29 c8 -5 16 -30 18 -58 1 -26 4 -65 6 -85 3 -31 1 -38 -13 -38 -14
0 -18 16 -26 95 -5 52 -7 95 -4 95 3 0 11 -4 19 -9z m141 -56 c0 -24 -4 -47
-10 -50 -6 -4 -10 15 -10 50 0 35 4 54 10 50 6 -3 10 -26 10 -50z m-526 39 c9
-3 16 -10 16 -15 0 -4 -7 -6 -15 -3 -9 4 -15 0 -15 -10 0 -10 -6 -13 -16 -9
-11 4 -12 8 -4 13 7 4 9 13 6 19 -8 12 4 14 28 5z m476 -84 l0 -90 -27 1 c-16
0 -22 3 -15 6 13 5 17 33 5 33 -5 0 -9 32 -9 70 -2 68 -1 70 22 70 24 0 24 -2
24 -90z m-340 56 c0 -2 3 -13 7 -23 6 -15 5 -16 -9 -5 -22 17 -88 6 -88 -15 0
-13 -3 -13 -15 -3 -9 7 -13 16 -9 19 14 14 114 38 114 27z m-160 -46 c12 -9 7
-17 -30 -50 -86 -77 -128 -102 -150 -90 -25 13 -26 51 -2 73 29 27 125 77 147
77 11 0 27 -5 35 -10z m252 -12 c-9 -9 -15 -9 -24 0 -9 9 -7 12 12 12 19 0 21
-3 12 -12z m-197 -38 c3 -5 3 -15 -1 -21 -6 -11 -23 6 -24 24 0 10 18 9 25 -3z
m194 1 c9 -6 11 -16 6 -32 l-8 -23 -18 23 c-26 32 -13 53 20 32z m-49 -53 c0
-10 -90 -9 -115 2 l-20 8 20 7 c11 4 36 13 55 20 32 12 36 11 47 -9 7 -11 12
-24 13 -28z m-185 11 c0 -16 -75 -60 -88 -52 -12 7 62 75 77 70 6 -2 11 -10
11 -18z m585 -294 l0 -262 -37 -7 c-61 -10 -232 -6 -206 4 31 12 37 46 30 159
-4 53 -9 144 -13 204 -5 70 -12 111 -20 118 -20 17 -356 8 -377 -10 -9 -7 -22
-11 -29 -9 -6 2 8 15 33 29 43 24 48 24 236 22 105 -2 202 1 215 6 13 5 56 9
96 8 l72 0 0 -262z m-700 200 c-7 -8 -16 -15 -21 -15 -13 0 -11 24 3 38 18 18
35 -3 18 -23z m-60 -17 c0 -15 -28 -9 -34 8 -11 30 -6 37 14 19 11 -10 20 -22
20 -27z m505 -84 c4 -53 8 -148 9 -212 1 -115 1 -117 -24 -128 -17 -8 -69 -10
-162 -6 l-138 5 0 29 c0 26 2 28 23 21 68 -25 189 20 235 87 29 43 31 145 3
206 -33 72 -132 103 -216 68 -28 -11 -41 -12 -49 -4 -22 22 20 30 166 30 l146
0 7 -96z m-341 35 c3 -17 6 -46 6 -65 l0 -33 -77 -17 c-43 -9 -81 -22 -85 -28
-5 -7 -9 -5 -12 4 -11 36 -36 129 -36 138 0 11 91 29 156 31 39 1 42 -1 48
-30z m207 6 c32 -17 69 -69 69 -98 0 -16 -2 -16 -22 3 -33 30 -67 36 -101 16
l-30 -17 6 46 c6 41 5 45 -14 45 -11 0 -33 -7 -49 -15 -17 -9 -30 -12 -30 -7
0 15 64 41 103 41 21 1 51 -6 68 -14z m-474 -41 c4 -12 -72 -45 -81 -36 -13
12 -5 23 27 36 35 16 49 15 54 0z m63 -81 c0 -17 -7 -24 -27 -29 -16 -3 -41
-12 -58 -19 -72 -31 -72 -31 -89 29 -20 69 -20 77 3 47 l18 -23 58 18 c41 13
60 25 63 39 5 18 7 16 18 -10 7 -17 13 -40 14 -52z m300 48 c0 -17 5 -33 10
-36 8 -5 7 -11 -1 -21 -13 -16 -4 -47 13 -42 7 3 19 17 28 33 25 45 45 53 76
29 15 -11 30 -29 35 -41 7 -20 6 -20 -19 -7 -33 17 -44 17 -77 2 -24 -11 -35
-38 -15 -38 17 0 11 -42 -7 -56 -20 -15 -79 -19 -87 -6 -2 4 7 18 20 31 29 28
28 55 -3 59 -30 4 -50 29 -35 44 7 7 12 22 12 35 0 20 22 42 43 43 4 0 7 -13
7 -29z m-739 -48 c5 -15 9 -45 7 -67 -3 -38 -5 -41 -34 -44 -29 -3 -32 0 -37
35 -4 21 -7 53 -7 71 0 29 3 32 30 32 24 0 33 -6 41 -27z m183 15 c3 -7 7 -28
10 -45 5 -28 2 -33 -14 -33 -10 0 -21 -8 -23 -17 -3 -10 -5 10 -6 45 -1 49 2
62 14 62 9 0 17 -6 19 -12z m-138 -25 c-10 -10 -19 5 -10 18 6 11 8 11 12 0 2
-7 1 -15 -2 -18z m574 -37 c0 -9 -19 -15 -60 -19 -34 -3 -67 -11 -75 -17 -12
-10 -15 -10 -15 1 0 8 22 21 53 30 67 21 97 23 97 5z m-560 -6 c0 -5 -4 -10
-10 -10 -5 0 -10 5 -10 10 0 6 5 10 10 10 6 0 10 -4 10 -10z m628 -37 c-19
-24 -38 -15 -38 17 l0 31 24 -18 c17 -13 21 -21 14 -30z m208 -6 c16 -51 -165
-122 -206 -81 -9 9 -1 11 32 7 62 -6 108 24 108 70 0 19 3 36 6 40 11 10 53
-15 60 -36z m-452 -24 c3 -27 13 -84 21 -128 8 -44 15 -97 15 -117 0 -35 -2
-38 -28 -38 l-29 0 -17 138 c-9 75 -20 149 -23 165 -5 25 -3 27 25 27 29 0 31
-2 36 -47z m851 -53 c0 -58 -4 -85 -12 -87 -10 -4 -13 18 -13 87 0 69 3 91 13
88 8 -3 12 -30 12 -88z m-686 30 c6 -28 11 -78 11 -110 l0 -59 -37 -10 c-21
-6 -41 -11 -45 -11 -5 0 -8 30 -8 68 0 37 -5 87 -11 111 -11 51 -4 61 48 61
30 0 32 -3 42 -50z m-320 -13 c-1 -18 -3 -24 -6 -14 -5 20 -22 23 -24 5 -3
-30 3 -54 17 -64 20 -16 18 -23 -8 -33 -32 -12 -38 -5 -27 28 7 20 7 42 -1 71
-9 34 -9 45 1 51 23 14 49 -9 48 -44z m71 29 c0 -8 7 -68 15 -132 9 -64 13
-119 11 -122 -3 -2 -12 -2 -21 1 -10 5 -15 20 -15 50 0 27 -6 49 -15 57 -11 9
-15 33 -15 86 0 67 2 74 20 74 11 0 20 -7 20 -14z m-173 -4 c31 -20 38 -108 9
-131 -6 -5 -28 -12 -48 -16 l-38 -7 0 50 c0 27 -3 64 -6 81 -6 30 -6 31 32 31
22 0 44 -4 51 -8z m-113 -18 c3 -9 6 -44 6 -79 0 -70 -5 -75 -82 -75 -31 0
-38 4 -42 23 -10 47 -26 128 -26 132 0 3 9 5 20 5 18 0 20 -7 20 -75 0 -61 3
-75 16 -75 13 0 15 13 14 73 -1 39 -1 75 -1 80 2 15 69 7 75 -9z m424 -79 c0
-29 0 -29 -8 -5 -4 14 -8 41 -8 60 l0 35 8 -30 c4 -16 8 -43 8 -60z m-178 -85
c0 -13 -10 -24 -26 -31 -33 -12 -38 -7 -30 26 8 32 56 37 56 5z m-180 -15
c-10 -12 -33 -15 -104 -14 l-91 2 70 8 c39 5 84 13 100 17 36 11 42 8 25 -13z
m92 -5 c-4 -30 -22 -42 -22 -15 0 8 -7 15 -16 15 -14 0 -14 3 -4 15 7 8 20 15
29 15 14 0 17 -7 13 -30z m418 -15 c0 -13 -33 -26 -108 -41 -24 -5 -32 -3 -32
8 0 9 24 19 68 30 37 8 68 16 70 17 1 0 2 -6 2 -14z m-465 -13 c-3 -3 -11 0
-18 7 -9 10 -8 11 6 5 10 -3 15 -9 12 -12z m963 6 c17 -17 15 -26 -13 -44 -24
-16 -27 -16 -45 1 -34 31 -23 50 31 54 8 0 20 -4 27 -11z m-828 -51 c0 -27 -6
-36 -26 -46 -32 -14 -36 -11 -39 30 -2 23 2 33 19 39 38 16 46 11 46 -23z
m-109 13 c16 0 19 -8 19 -41 0 -40 0 -41 -32 -34 -66 13 -68 15 -68 52 0 34 1
35 31 29 17 -3 40 -6 50 -6z m829 6 c0 -3 -4 -8 -10 -11 -5 -3 -10 -1 -10 4 0
6 5 11 10 11 6 0 10 -2 10 -4z m-951 -25 c19 -12 6 -45 -15 -37 -9 3 -40 6
-70 6 -47 0 -54 2 -54 20 0 18 7 20 63 20 34 0 68 -4 76 -9z m981 -11 c0 -5
-4 -10 -9 -10 -6 0 -13 5 -16 10 -3 6 1 10 9 10 9 0 16 -4 16 -10z"/>
<path d="M430 908 c-64 -24 -64 -24 -56 -36 4 -6 26 -3 58 7 60 18 78 28 78
42 0 13 -18 10 -80 -13z"/>
<path d="M220 695 c0 -8 5 -15 10 -15 6 0 10 7 10 15 0 8 -4 15 -10 15 -5 0
-10 -7 -10 -15z"/>
<path d="M262 701 c4 -13 18 -16 19 -4 0 4 -5 9 -11 12 -7 2 -11 -2 -8 -8z"/>
<path d="M5445 1470 c-10 -11 -20 -42 -23 -70 l-5 -50 -45 25 c-24 14 -52 25
-62 25 -22 0 -50 -32 -86 -97 l-29 -53 -52 0 c-33 0 -57 -5 -67 -15 -35 -36
-81 -175 -57 -175 6 0 12 3 12 8 1 4 3 20 5 36 6 55 14 38 14 -32 0 -38 3 -77
6 -86 5 -12 -5 -16 -57 -18 -78 -4 -77 -1 -78 -185 -1 -114 -3 -133 -17 -133
-9 0 -14 -7 -12 -18 3 -16 25 -17 301 -17 276 0 297 -1 297 -17 0 -10 9 -27
19 -37 16 -16 17 -20 5 -25 -8 -3 -14 -10 -14 -16 0 -11 395 -14 499 -4 65 7
84 24 26 24 -38 0 -40 2 -25 31 14 24 32 24 100 -2 48 -18 69 -20 160 -16 58
3 127 10 153 15 26 5 50 5 53 1 3 -5 8 -55 11 -111 5 -96 9 -109 49 -190 24
-47 48 -89 53 -92 5 -4 40 -2 78 4 37 5 109 15 158 21 50 6 150 22 222 36
l133 25 67 -38 c38 -21 92 -64 123 -97 59 -63 88 -77 203 -102 117 -26 123
-24 153 43 14 31 42 90 61 130 42 86 44 82 -77 133 -41 17 -86 37 -100 45 -30
16 -118 34 -166 34 l-34 0 20 40 c11 22 24 40 29 40 5 0 18 21 29 48 17 39 19
49 8 60 -11 11 -18 11 -35 3 -26 -15 -26 -14 4 51 38 81 60 59 -192 186 -78
40 -133 62 -155 62 -34 0 -35 -2 -97 -124 -34 -68 -77 -140 -94 -159 -31 -34
-36 -36 -136 -46 -57 -6 -108 -14 -114 -18 -7 -4 -8 10 -3 43 4 27 11 124 14
216 4 91 10 169 14 173 3 4 23 2 45 -4 21 -6 99 -11 173 -11 163 0 180 -4 180
-37 0 -15 5 -23 13 -21 7 3 14 33 18 79 4 41 16 123 28 183 27 134 24 153 -27
161 -20 4 -102 19 -182 35 -231 45 -215 45 -316 1 l-89 -38 -12 -69 c-6 -38
-12 -95 -12 -128 -1 -56 -2 -58 -23 -51 -13 4 -36 8 -51 10 -26 2 -31 9 -51
68 -35 105 -38 106 -178 106 -138 -1 -171 -8 -210 -46 -15 -14 -29 -25 -30
-22 -16 24 -42 115 -45 157 -3 35 -10 55 -21 61 -32 16 -174 33 -184 23 -6 -6
-13 -31 -15 -56 -5 -40 -9 -46 -28 -46 -18 0 -31 14 -55 58 -48 85 -56 92
-110 92 -34 0 -52 -5 -65 -20z m142 -74 l31 -60 -23 -18 c-14 -11 -25 -32 -27
-51 l-3 -32 -18 33 c-14 26 -24 32 -51 32 -38 0 -46 14 -46 91 0 56 14 71 65
67 38 -3 42 -6 72 -62z m161 -16 c-1 -26 -6 -40 -15 -40 -13 0 -12 21 3 68 7
25 14 11 12 -28z m79 24 c-3 -3 -12 -4 -19 -1 -8 3 -5 6 6 6 11 1 17 -2 13 -5z
m1013 -45 c53 -13 179 -37 232 -44 69 -9 71 -16 49 -131 -11 -54 -23 -119 -26
-144 l-7 -45 -156 3 c-86 2 -170 7 -186 12 -15 6 -32 7 -37 4 -13 -8 -11 17
10 114 23 104 31 234 15 239 -8 3 -13 -21 -16 -69 -3 -40 -18 -127 -33 -193
-20 -89 -30 -163 -36 -285 -11 -228 -17 -270 -39 -270 -10 0 -25 -3 -34 -6
-14 -5 -16 9 -16 124 0 122 -1 131 -20 137 -18 6 -20 15 -20 79 0 60 3 76 20
91 21 19 27 60 10 70 -14 8 -12 137 3 208 l12 59 70 33 c73 35 111 37 205 14z
m-1504 -3 c8 -8 11 -23 8 -33 -5 -17 -5 -17 6 0 15 23 26 22 33 -5 8 -30 -9
-58 -33 -53 -15 3 -20 -1 -18 -13 2 -12 -3 -16 -18 -15 -14 2 -25 -6 -32 -22
-7 -14 -17 -25 -23 -25 -7 0 -5 9 5 25 25 38 19 44 -10 8 -26 -33 -58 -46 -48
-19 3 8 11 13 18 10 7 -3 18 7 24 21 16 34 15 40 -3 25 -13 -11 -14 -10 -9 4
4 10 13 15 20 12 18 -7 41 34 25 43 -7 5 -6 14 5 29 18 26 30 28 50 8z m85
-95 c-6 -11 -11 -31 -11 -45 0 -19 -5 -26 -19 -26 -18 0 -18 3 7 62 15 34 28
54 30 45 2 -9 -2 -25 -7 -36z m273 26 c8 -13 7 -24 -4 -44 -23 -40 -41 -42
-30 -3 7 25 5 35 -11 51 l-20 20 27 -3 c15 -2 32 -11 38 -21z m187 -34 c14
-36 11 -43 -15 -43 -18 0 -27 8 -35 31 -15 44 -14 47 15 41 15 -3 29 -14 35
-29z m-397 -12 c9 -10 20 -35 23 -55 5 -32 3 -36 -17 -36 -29 0 -49 27 -50 66
0 47 16 57 44 25z m44 -6 c-3 -3 -9 2 -12 12 -6 14 -5 15 5 6 7 -7 10 -15 7
-18z m232 -27 c0 -13 -8 -18 -31 -18 -17 0 -29 3 -27 8 32 65 31 65 45 46 7
-10 13 -26 13 -36z m40 20 c0 -19 -2 -20 -10 -8 -13 19 -13 30 0 30 6 0 10
-10 10 -22z m-446 -3 c-4 -8 -10 -15 -16 -15 -5 0 -7 -4 -4 -9 3 -5 -5 -8 -19
-7 -14 0 -23 6 -21 11 2 6 9 9 15 7 7 -1 19 4 27 13 19 19 25 19 18 0z m903
-47 c-17 -35 -36 -66 -42 -70 -5 -5 -50 -7 -99 -6 l-89 3 -12 43 c-13 42 -12
43 19 67 29 23 39 25 143 25 l112 0 -32 -62z m-1077 45 c-1 -20 -19 -32 -62
-38 -51 -8 -54 -5 -38 26 8 14 21 19 55 19 25 0 45 -3 45 -7z m435 -3 c3 -5 1
-10 -4 -10 -6 0 -11 5 -11 10 0 6 2 10 4 10 3 0 8 -4 11 -10z m722 -12 c28
-35 24 -66 -16 -123 -22 -31 -42 -52 -45 -47 -3 5 -8 27 -12 48 -5 33 -1 48
22 87 31 50 36 54 51 35z m-744 -45 c-23 -18 -36 -16 -29 3 3 9 6 20 6 25 0 5
9 4 20 -3 19 -12 19 -14 3 -25z m396 -30 c6 -21 11 -122 11 -225 l0 -188 -28
6 c-39 8 -82 -27 -66 -53 13 -21 52 -29 67 -14 18 18 27 12 27 -19 l0 -30
-169 0 -168 0 -7 43 c-3 23 -9 142 -13 264 -5 174 -3 226 7 238 10 12 40 15
171 15 l158 0 10 -37z m-662 12 c2 -5 -8 -10 -22 -10 -14 0 -25 3 -25 7 0 4
-17 9 -37 11 -21 2 -11 4 21 3 33 -1 61 -5 63 -11z m-235 -82 c2 -34 1 -60 -4
-57 -4 3 -8 35 -7 72 1 79 6 72 11 -15z m308 70 c-1 -11 -26 -43 -34 -43 -4 0
-5 4 -1 9 3 5 1 12 -5 16 -6 4 -8 11 -5 16 7 11 45 12 45 2z m76 -62 c1 -25 5
-132 9 -237 l8 -192 -26 5 -27 5 0 154 c0 84 -3 155 -7 157 -5 3 -7 43 -5 90
3 83 4 84 25 74 18 -8 22 -19 23 -56z m137 -163 c4 -123 9 -237 13 -254 6 -32
5 -32 -45 -43 -29 -6 -54 -11 -56 -11 -3 0 -5 60 -5 133 0 72 -5 183 -11 246
-6 62 -8 115 -5 118 6 7 78 32 92 33 7 0 13 -72 17 -222z m-356 165 l3 -43
-70 0 -70 0 0 45 0 46 68 -3 67 -3 2 -42z m1123 5 c0 -6 -16 -45 -36 -87 -33
-70 -37 -74 -50 -56 -18 24 -18 52 -1 62 7 4 26 29 42 55 27 43 45 53 45 26z
m-987 -5 c3 -5 0 -13 -7 -19 -8 -8 -15 -7 -23 2 -7 6 -9 15 -6 18 9 8 31 8 36
-1z m852 -40 c6 -32 6 -33 -29 -33 -27 0 -34 3 -30 15 5 12 -6 15 -66 15 -60
0 -71 -3 -66 -15 3 -9 0 -15 -9 -15 -10 0 -15 11 -15 35 l0 34 98 3 c53 2 100
1 103 -2 4 -3 10 -20 14 -37z m224 26 c17 -6 31 -14 31 -19 0 -13 -113 -120
-126 -120 -24 0 -24 18 2 66 22 41 52 84 59 84 1 0 16 -5 34 -11z m-1139 -44
c0 -8 -9 -15 -20 -15 -22 0 -27 15 -7 23 21 9 27 7 27 -8z m1153 -60 c-17 -23
-33 -32 -33 -18 0 10 32 43 42 43 5 0 1 -11 -9 -25z m-229 -1 c12 -31 -5 -37
-88 -31 -78 5 -136 21 -136 39 0 4 49 8 109 8 90 0 110 -3 115 -16z m-1254
-24 c0 -5 -2 -10 -4 -10 -3 0 -8 5 -11 10 -3 6 -1 10 4 10 6 0 11 -4 11 -10z
m65 3 c-11 -3 -26 -10 -32 -15 -10 -8 -13 -6 -13 6 0 12 9 16 33 15 21 -1 25
-3 12 -6z m345 -138 l0 -145 -63 0 c-62 0 -64 0 -80 35 -10 22 -24 35 -35 35
-12 0 -31 19 -50 50 -17 27 -45 58 -61 68 l-30 18 33 12 c18 7 71 12 119 12
86 0 87 0 102 -30 9 -16 17 -30 19 -30 14 0 36 14 36 22 0 6 -7 8 -15 4 -10
-3 -20 5 -30 24 -15 30 -16 30 -107 30 -50 0 -106 -5 -124 -12 -26 -9 -39 -9
-61 2 l-28 13 38 10 c20 5 37 13 37 18 0 5 68 9 150 9 l150 0 0 -145z m711
-51 c3 -82 4 -150 3 -152 0 -1 -22 6 -48 17 l-46 20 0 145 0 144 43 -13 42
-12 6 -149z m-1121 138 c0 -10 -5 -23 -11 -29 -7 -7 -5 -21 8 -47 17 -38 17
-38 -7 -57 -14 -10 -28 -19 -32 -19 -5 0 -8 31 -8 69 0 61 2 69 21 74 12 3 18
10 14 16 -3 6 -1 11 4 11 6 0 11 -8 11 -18z m1423 7 c-16 -16 -273 -27 -273
-12 0 9 32 13 108 16 59 1 123 4 142 5 24 1 31 -1 23 -9z m67 -36 c0 -45 -5
-40 -13 10 -3 22 -2 35 4 32 5 -4 9 -22 9 -42z m753 -37 c161 -78 155 -73 128
-132 -104 -229 -140 -283 -133 -203 2 19 -2 48 -8 64 -10 26 -9 32 9 46 26 22
26 32 -1 81 l-23 40 33 28 c37 31 27 53 -11 26 -65 -46 -63 -40 -33 -95 27
-50 27 -50 6 -61 -36 -19 -65 -9 -68 25 -2 17 -8 35 -14 42 -16 19 -68 26 -94
12 -32 -16 -31 -33 1 -25 47 12 73 -2 80 -44 6 -33 11 -39 46 -49 21 -6 39
-16 39 -20 0 -5 3 -23 6 -41 7 -31 6 -32 -15 -21 -12 7 -44 32 -71 56 -49 43
-53 45 -115 45 l-65 0 51 86 c28 48 62 111 76 140 18 39 30 54 45 54 11 0 70
-24 131 -54z m-2150 19 c23 -12 52 -40 73 -73 20 -29 47 -57 60 -62 13 -5 24
-11 24 -14 0 -2 3 -11 6 -20 5 -14 -4 -16 -60 -16 -36 0 -74 4 -84 9 -9 5 -25
12 -35 15 -17 6 -17 8 4 37 l22 31 -33 60 c-17 33 -28 59 -23 56 4 -2 25 -12
46 -23z m1357 -37 c0 -35 -3 -80 -6 -100 l-7 -38 -62 0 c-34 0 -86 -5 -115
-10 -38 -7 -56 -7 -60 1 -8 12 -23 180 -17 186 2 1 57 7 123 12 65 4 125 9
132 10 8 1 12 -17 12 -61z m-1395 -2 l29 -54 -27 -32 c-34 -40 -34 -48 1 -53
15 -2 -3 -5 -40 -6 -61 -1 -68 1 -68 19 0 14 5 18 16 13 13 -5 15 -2 10 13 -4
15 2 24 24 37 34 21 35 25 16 72 -13 31 -12 45 4 45 3 0 19 -24 35 -54z m1472
-113 c-2 -16 -4 -3 -4 27 0 30 2 43 4 28 2 -16 2 -40 0 -55z m-335 -73 c10 0
18 -4 18 -10 0 -5 7 -10 16 -10 8 0 13 4 9 9 -3 5 -1 13 5 16 6 4 9 1 8 -6 -2
-6 3 -14 10 -16 7 -3 12 4 12 16 0 20 6 21 84 21 107 0 116 4 116 45 0 19 5
37 10 40 6 4 10 -15 10 -49 0 -62 9 -56 -111 -75 -36 -6 -100 -11 -141 -11
l-75 0 -7 38 c-3 20 -5 53 -4 72 1 28 3 24 11 -22 8 -46 14 -58 29 -58z m1248
75 c-5 -13 -20 -41 -33 -62 -14 -21 -39 -68 -57 -103 -39 -77 -49 -92 -62 -84
-5 4 -3 13 5 22 8 10 36 64 62 122 52 116 61 130 81 130 10 0 11 -6 4 -25z
m-919 -148 c-18 -18 -39 9 -23 31 7 9 16 26 20 37 5 15 8 11 10 -19 2 -21 -1
-43 -7 -49z m-911 43 c0 -5 -10 -10 -22 -9 -22 0 -22 1 -3 9 11 5 21 9 23 9 1
1 2 -3 2 -9z m288 -7 c-10 -2 -26 -2 -35 0 -10 3 -2 5 17 5 19 0 27 -2 18 -5z
m1555 -20 c-3 -10 -16 -29 -28 -43 -13 -14 -30 -40 -39 -57 -9 -18 -23 -33
-31 -33 -20 0 -19 1 11 63 15 30 38 61 53 70 34 21 42 21 34 0z m-434 -42 l53
-48 -59 -7 c-32 -4 -113 -18 -178 -31 -66 -14 -151 -25 -190 -25 l-70 0 -32
48 c-22 34 -28 49 -19 54 13 7 98 20 261 38 50 6 95 13 100 15 6 2 26 4 45 4
28 0 46 -10 89 -48z m45 43 c9 -3 16 -10 16 -15 0 -14 -33 -10 -54 6 -19 15
-19 15 1 15 12 0 28 -3 37 -6z m-1271 -11 c-29 -2 -77 -2 -105 0 -29 2 -6 3
52 3 58 0 81 -1 53 -3z m1367 -68 c11 -13 8 -15 -13 -15 -19 0 -25 4 -21 15 4
8 10 15 14 15 4 0 13 -7 20 -15z m-600 -155 l0 -45 -22 35 c-11 19 -23 58 -25
85 l-4 50 25 -40 c18 -28 26 -54 26 -85z m640 56 c0 -36 -4 -68 -10 -71 -6 -4
-10 12 -10 39 0 32 -6 52 -19 65 -21 21 -23 20 32 30 4 0 7 -28 7 -63z m-165
44 c-27 -12 -35 -12 -35 0 0 6 12 10 28 9 24 0 25 -1 7 -9z m-52 -7 c-7 -2
-21 -2 -30 0 -10 3 -4 5 12 5 17 0 24 -2 18 -5z m-66 -9 c-3 -3 -12 -4 -19 -1
-8 3 -5 6 6 6 11 1 17 -2 13 -5z m-40 -10 c-3 -3 -12 -4 -19 -1 -8 3 -5 6 6 6
11 1 17 -2 13 -5z m261 -6 c7 -7 12 -31 12 -55 0 -36 -3 -43 -22 -48 -13 -2
-54 -11 -91 -20 -68 -15 -179 -31 -289 -42 l-58 -5 0 55 c0 45 3 57 18 60 56
15 347 65 388 66 16 1 35 -4 42 -11z m298 -8 c99 -10 105 -12 179 -44 108 -48
109 -47 -25 -40 -119 6 -128 8 -190 42 -36 19 -74 42 -85 50 -19 14 -19 14 5
8 14 -3 66 -10 116 -16z m-136 -20 c14 -11 30 -20 35 -20 34 -1 36 -17 11 -74
-24 -54 -27 -56 -48 -45 -64 33 -74 46 -70 88 2 23 8 41 13 41 5 0 9 7 9 15 0
20 20 18 50 -5z m-624 -12 c-10 -14 -16 -44 -16 -79 0 -50 -3 -57 -22 -63 -13
-3 -26 -6 -30 -6 -9 0 -22 146 -14 159 4 6 27 11 52 11 45 0 45 0 30 -22z
m822 -73 c5 -4 -57 -148 -69 -159 -10 -11 -66 37 -74 65 -4 10 3 39 14 64 l20
46 53 -7 c29 -4 54 -8 56 -9z m204 -20 l67 -6 -18 -32 c-10 -18 -30 -65 -45
-104 -32 -84 -31 -83 -149 -57 -88 20 -111 31 -99 47 4 7 23 47 42 90 l33 78
51 -5 c28 -3 81 -8 118 -11z"/>
<path d="M6776 1208 c-15 -89 -18 -138 -8 -138 12 0 27 48 37 123 6 38 4 47
-8 47 -9 0 -17 -13 -21 -32z"/>
<path d="M5291 1293 c-16 -36 1 -53 29 -28 24 22 26 37 3 28 -12 -5 -15 -2
-10 10 11 28 -9 19 -22 -10z"/>
<path d="M5356 1295 c-3 -8 -1 -15 3 -15 5 0 11 7 15 15 3 8 1 15 -3 15 -5 0
-11 -7 -15 -15z"/>
<path d="M5765 1135 c-20 -19 -25 -34 -25 -74 0 -59 14 -71 82 -71 63 0 80 16
85 81 5 51 3 55 -25 72 -43 25 -88 22 -117 -8z m38 -22 c-13 -8 -23 -24 -23
-34 0 -24 44 -53 71 -46 15 4 19 3 12 -4 -6 -6 -28 -9 -49 -7 -36 3 -39 6 -42
35 -4 39 13 73 36 72 14 0 13 -3 -5 -16z m47 -27 c0 -21 -20 -30 -33 -17 -9 9
-8 14 3 21 21 14 30 12 30 -4z"/>
<path d="M5805 959 c-30 -15 -75 -101 -75 -143 0 -33 4 -39 35 -52 66 -27 120
-29 158 -5 19 12 38 28 41 37 13 34 5 81 -20 117 -35 53 -89 70 -139 46z m87
-31 c82 -67 50 -168 -50 -154 -85 11 -103 44 -61 112 32 52 77 69 111 42z"/>
<path d="M5810 875 c-19 -20 -21 -27 -11 -39 30 -36 91 -21 91 24 0 43 -45 52
-80 15z m50 -14 c0 -12 -20 -25 -27 -18 -7 7 6 27 18 27 5 0 9 -4 9 -9z"/>
<path d="M5713 723 c-33 -6 -47 -28 -33 -52 12 -23 26 -26 65 -11 21 8 26 16
23 37 -3 28 -15 34 -55 26z"/>
<path d="M5526 1081 c-12 -19 6 -42 28 -36 20 5 20 4 -1 -6 -13 -7 -23 -16
-23 -21 0 -10 3 -10 34 2 20 7 25 15 22 32 -3 13 -5 26 -5 31 -1 10 -49 9 -55
-2z"/>
<path d="M6390 964 c0 -17 22 -14 28 4 2 7 -3 12 -12 12 -9 0 -16 -7 -16 -16z"/>
<path d="M6290 600 c0 -5 5 -10 10 -10 6 0 10 5 10 10 0 6 -4 10 -10 10 -5 0
-10 -4 -10 -10z"/>
<path d="M6825 510 c-11 -18 5 -31 26 -20 11 6 17 15 14 21 -8 12 -32 12 -40
-1z"/>
<path d="M6891 319 c-18 -7 -21 -13 -13 -21 14 -14 73 1 80 20 4 14 -32 15
-67 1z"/>
<path d="M7262 308 c6 -16 36 -34 44 -25 9 9 -15 37 -33 37 -8 0 -13 -5 -11
-12z"/>
<path d="M7377 228 c-18 -45 -15 -53 23 -63 21 -5 28 0 45 31 l19 36 -23 19
c-34 28 -46 24 -64 -23z"/>
<path d="M6743 887 c-7 -40 -13 -80 -15 -88 -2 -8 4 -14 12 -14 24 0 48 164
25 172 -6 2 -16 -29 -22 -70z"/>
<path d="M4366 842 l-28 -17 6 -95 c4 -51 9 -96 12 -99 9 -9 289 1 301 11 9 7
13 39 13 95 0 70 -3 85 -17 90 -10 4 -24 13 -32 21 -9 8 -22 11 -35 6 -37 -13
-156 -17 -156 -5 0 16 -30 12 -64 -7z m31 -38 c-3 -3 -12 -4 -19 -1 -8 3 -5 6
6 6 11 1 17 -2 13 -5z m52 -18 c-8 -17 -21 -25 -45 -28 -19 -2 -34 0 -34 4 0
4 14 8 31 8 22 0 32 5 36 20 3 11 9 20 14 20 5 0 4 -11 -2 -24z m141 9 c0 -8
7 -15 15 -15 8 0 15 7 15 15 0 8 5 15 10 15 6 0 10 -11 10 -25 0 -19 -5 -25
-23 -25 -12 0 -30 9 -40 20 -21 25 -21 30 -2 30 8 0 15 -7 15 -15z m-107 -41
c-16 -25 -16 -27 2 -40 20 -15 17 -18 -9 -8 -21 8 -20 50 2 63 24 15 24 14 5
-15z m-53 -38 c0 -22 40 -46 74 -46 18 0 40 10 56 25 14 13 37 26 50 27 22 3
25 -2 28 -29 l3 -33 -115 0 c-63 0 -121 -2 -129 -6 -10 -3 -16 4 -21 26 -3 18
-3 36 0 41 9 15 54 10 54 -5z"/>
<path d="M4350 590 c-13 -9 -13 -11 0 -20 10 -6 11 -10 3 -10 -22 0 -14 -16
14 -29 23 -10 30 -9 54 8 24 18 43 21 135 21 90 0 112 -3 145 -22 39 -22 59
-50 40 -56 -17 -6 -13 -42 5 -49 22 -8 50 10 46 31 -5 26 -65 84 -104 101 -26
10 -71 15 -143 15 -63 0 -105 4 -105 10 0 13 -70 13 -90 0z m70 -24 c0 -8 -7
-17 -16 -20 -23 -9 -24 -8 -24 14 0 13 7 20 20 20 11 0 20 -6 20 -14z m357
-112 c-3 -3 -12 -4 -19 -1 -8 3 -5 6 6 6 11 1 17 -2 13 -5z"/>
<path d="M4888 566 c-15 -11 -18 -29 -18 -93 0 -75 2 -81 23 -87 73 -19 97 5
97 97 0 64 -1 67 -30 82 -35 18 -50 18 -72 1z m82 -90 c0 -25 -4 -48 -10 -51
-6 -4 -10 13 -10 44 0 28 5 51 10 51 6 0 10 -20 10 -44z m-50 14 c0 -5 -4 -10
-10 -10 -5 0 -10 5 -10 10 0 6 5 10 10 10 6 0 10 -4 10 -10z m0 -60 c0 -11 -4
-20 -10 -20 -5 0 -10 9 -10 20 0 11 5 20 10 20 6 0 10 -9 10 -20z"/>
<path d="M1818 518 c-26 -21 -30 -53 -9 -72 15 -14 36 -16 132 -14 l114 3 3
48 3 47 -114 0 c-75 0 -118 -4 -129 -12z m66 -34 c9 -22 8 -24 -9 -24 -8 0
-15 9 -15 20 0 24 15 27 24 4z m146 -4 c0 -18 -7 -20 -60 -20 -53 0 -60 2 -60
20 0 18 7 20 60 20 53 0 60 -2 60 -20z"/>
<path d="M6257 464 c-10 -10 -249 -53 -263 -47 -21 8 -84 -17 -84 -33 0 -8 6
-14 13 -15 6 0 2 -5 -10 -11 -14 -7 -23 -20 -23 -35 l0 -23 218 3 c258 3 272
7 272 80 0 55 -30 87 -81 87 -20 0 -38 -3 -42 -6z m87 -46 c21 -30 20 -55 -3
-68 -29 -15 -30 -13 -24 25 3 21 1 41 -7 50 -10 12 -10 15 3 15 9 0 23 -10 31
-22z m-146 -23 c0 -14 8 -35 18 -47 l19 -21 -64 7 c-35 3 -69 10 -75 15 -6 5
-28 12 -49 16 -51 10 -57 25 -10 26 21 0 61 7 88 14 71 18 73 18 73 -10z m80
16 c23 -14 10 -46 -18 -46 -20 0 -26 6 -28 28 -3 21 1 27 15 27 10 0 24 -4 31
-9z m-288 -76 c0 -8 -9 -15 -20 -15 -20 0 -26 11 -13 23 12 13 33 7 33 -8z"/>
<path d="M5463 442 c-42 -18 -83 -49 -83 -64 0 -5 11 -13 24 -20 28 -12 99 6
162 44 l36 21 -23 18 c-30 23 -62 23 -116 1z m27 -33 c-26 -19 -52 -22 -50 -4
0 11 62 35 70 28 3 -2 -6 -13 -20 -24z m70 21 c0 -5 -14 -17 -31 -26 l-31 -16
18 26 c19 25 44 35 44 16z"/>
</g>
</svg>
